<svg width="36" height="24" viewBox="0 0 36 24" fill="none" xmlns="http://www.w3.org/2000/svg">
<g id="Group 145">
<path id="Vector" d="M0 0H36V24H0V0Z" fill="white"/>
<path id="Vector_2" d="M0 0H36V8H0V0Z" fill="#F15B25"/>
<path id="Vector_3" d="M0 16H36V24H0V16Z" fill="#006934"/>
<path id="Vector_4" d="M17.9998 15.7008C20.0433 15.7008 21.6998 14.0442 21.6998 12.0008C21.6998 9.95733 20.0433 8.30078 17.9998 8.30078C15.9564 8.30078 14.2998 9.95733 14.2998 12.0008C14.2998 14.0442 15.9564 15.7008 17.9998 15.7008Z" fill="#2C2C6F"/>
<path id="Vector_5" d="M17.9998 15.2008C19.7671 15.2008 21.1998 13.7681 21.1998 12.0008C21.1998 10.2335 19.7671 8.80078 17.9998 8.80078C16.2325 8.80078 14.7998 10.2335 14.7998 12.0008C14.7998 13.7681 16.2325 15.2008 17.9998 15.2008Z" fill="white"/>
<path id="Vector_6" d="M17.9999 12.6394C18.3533 12.6394 18.6399 12.3528 18.6399 11.9994C18.6399 11.6459 18.3533 11.3594 17.9999 11.3594C17.6464 11.3594 17.3599 11.6459 17.3599 11.9994C17.3599 12.3528 17.6464 12.6394 17.9999 12.6394Z" fill="#2C2C6F"/>
<g id="d">
<g id="c">
<g id="b">
<g id="a">
<path id="Vector_7" d="M17.9999 8.79883L18.1199 10.7245L17.9999 11.6779L17.8799 10.7245L17.9999 8.79883Z" fill="#2C2C6F"/>
<path id="Vector_8" d="M18.3991 8.9658C18.4758 8.97589 18.5461 8.92193 18.5562 8.84527C18.5663 8.76861 18.5123 8.69829 18.4357 8.6882C18.359 8.6781 18.2887 8.73207 18.2786 8.80872C18.2685 8.88538 18.3225 8.95571 18.3991 8.9658Z" fill="#2C2C6F"/>
</g>
<g id="a_2">
<path id="Vector_9" d="M18.0001 15.2012L17.8801 13.2755L18.0001 12.3221L18.1201 13.2755L18.0001 15.2012Z" fill="#2C2C6F"/>
<path id="Vector_10" d="M17.6009 15.0342C17.5242 15.0241 17.4539 15.0781 17.4438 15.1547C17.4337 15.2314 17.4877 15.3017 17.5643 15.3118C17.641 15.3219 17.7113 15.2679 17.7214 15.1913C17.7315 15.1146 17.6775 15.0443 17.6009 15.0342Z" fill="#2C2C6F"/>
</g>
</g>
<g id="b_2">
<g id="a_3">
<path id="Vector_11" d="M18.8283 8.90801L18.4458 10.7991L18.0832 11.689L18.214 10.737L18.8283 8.90801Z" fill="#2C2C6F"/>
<path id="Vector_12" d="M19.1711 9.17164C19.2426 9.20123 19.3244 9.1673 19.354 9.09587C19.3836 9.02444 19.3497 8.94254 19.2783 8.91295C19.2068 8.88336 19.1249 8.91728 19.0954 8.98872C19.0658 9.06015 19.0997 9.14205 19.1711 9.17164Z" fill="#2C2C6F"/>
</g>
<g id="a_4">
<path id="Vector_13" d="M17.1717 15.092L17.5542 13.2009L17.9168 12.311L17.786 13.263L17.1717 15.092Z" fill="#2C2C6F"/>
<path id="Vector_14" d="M16.8289 14.8284C16.7574 14.7988 16.6756 14.8327 16.646 14.9041C16.6164 14.9756 16.6503 15.0575 16.7217 15.087C16.7932 15.1166 16.8751 15.0827 16.9046 15.0113C16.9342 14.9398 16.9003 14.858 16.8289 14.8284Z" fill="#2C2C6F"/>
</g>
</g>
</g>
<g id="c_2">
<g id="b_3">
<g id="a_5">
<path id="Vector_15" d="M19.6005 9.22797L18.7416 10.9556L18.161 11.7213L18.5338 10.8356L19.6005 9.22797Z" fill="#2C2C6F"/>
<path id="Vector_16" d="M19.8635 9.57104C19.9248 9.61811 20.0127 9.60654 20.0598 9.54519C20.1068 9.48385 20.0953 9.39597 20.0339 9.3489C19.9726 9.30183 19.8847 9.3134 19.8376 9.37474C19.7906 9.43608 19.8021 9.52397 19.8635 9.57104Z" fill="#2C2C6F"/>
</g>
<g id="a_6">
<path id="Vector_17" d="M16.4005 14.772L17.2594 13.0444L17.84 12.2787L17.4672 13.1644L16.4005 14.772Z" fill="#2C2C6F"/>
<path id="Vector_18" d="M16.1375 14.427C16.0762 14.3799 15.9883 14.3915 15.9412 14.4529C15.8941 14.5142 15.9057 14.6021 15.9671 14.6491C16.0284 14.6962 16.1163 14.6846 16.1634 14.6233C16.2104 14.562 16.1989 14.4741 16.1375 14.427Z" fill="#2C2C6F"/>
</g>
</g>
<g id="b_4">
<g id="a_7">
<path id="Vector_19" d="M20.2631 9.7372L18.9863 11.1837L18.2273 11.773L18.8166 11.014L20.2631 9.7372Z" fill="#2C2C6F"/>
<path id="Vector_20" d="M20.428 10.137C20.4751 10.1983 20.563 10.2099 20.6243 10.1628C20.6857 10.1158 20.6972 10.0279 20.6502 9.96654C20.6031 9.9052 20.5152 9.89363 20.4539 9.9407C20.3925 9.98776 20.381 10.0756 20.428 10.137Z" fill="#2C2C6F"/>
</g>
<g id="a_8">
<path id="Vector_21" d="M15.7374 14.2628L17.0142 12.8163L17.7732 12.227L17.1839 12.986L15.7374 14.2628Z" fill="#2C2C6F"/>
<path id="Vector_22" d="M15.5725 13.863C15.5254 13.8017 15.4375 13.7901 15.3762 13.8372C15.3148 13.8842 15.3033 13.9721 15.3503 14.0335C15.3974 14.0948 15.4853 14.1064 15.5466 14.0593C15.608 14.0122 15.6195 13.9244 15.5725 13.863Z" fill="#2C2C6F"/>
</g>
</g>
</g>
</g>
<g id="d_2">
<g id="c_3">
<g id="b_5">
<g id="a_9">
<path id="Vector_23" d="M20.7719 10.3988L19.1643 11.4656L18.2786 11.8384L19.0443 11.2577L20.7719 10.3988Z" fill="#2C2C6F"/>
<path id="Vector_24" d="M20.8276 10.8283C20.8572 10.8997 20.9391 10.9336 21.0105 10.9041C21.082 10.8745 21.1159 10.7926 21.0863 10.7211C21.0567 10.6497 20.9748 10.6158 20.9034 10.6454C20.8319 10.675 20.798 10.7569 20.8276 10.8283Z" fill="#2C2C6F"/>
</g>
<g id="a_10">
<path id="Vector_25" d="M15.2291 13.5992L16.8367 12.5325L17.7224 12.1597L16.9567 12.7403L15.2291 13.5992Z" fill="#2C2C6F"/>
<path id="Vector_26" d="M15.1734 13.1698C15.1438 13.0983 15.0619 13.0644 14.9905 13.094C14.919 13.1236 14.8851 13.2055 14.9147 13.2769C14.9443 13.3483 15.0262 13.3823 15.0976 13.3527C15.169 13.3231 15.203 13.2412 15.1734 13.1698Z" fill="#2C2C6F"/>
</g>
</g>
<g id="b_6">
<g id="a_11">
<path id="Vector_27" d="M21.0911 11.1706L19.2622 11.7849L18.3102 11.9158L19.2 11.5531L21.0911 11.1706Z" fill="#2C2C6F"/>
<path id="Vector_28" d="M21.0341 11.5992C21.0442 11.6758 21.1145 11.7298 21.1912 11.7197C21.2679 11.7096 21.3218 11.6393 21.3117 11.5626C21.3016 11.486 21.2313 11.432 21.1547 11.4421C21.078 11.4522 21.024 11.5225 21.0341 11.5992Z" fill="#2C2C6F"/>
</g>
<g id="a_12">
<path id="Vector_29" d="M14.9099 12.8274L16.7388 12.2131L17.6908 12.0823L16.8009 12.445L14.9099 12.8274Z" fill="#2C2C6F"/>
<path id="Vector_30" d="M14.9669 12.3989C14.9568 12.3222 14.8864 12.2682 14.8098 12.2783C14.7331 12.2884 14.6792 12.3588 14.6892 12.4354C14.6993 12.5121 14.7697 12.566 14.8463 12.5559C14.923 12.5459 14.9769 12.4755 14.9669 12.3989Z" fill="#2C2C6F"/>
</g>
</g>
</g>
<g id="c_4">
<g id="b_7">
<g id="a_13">
<path id="Vector_31" d="M21.2002 11.9989L19.2746 12.1189L18.3211 11.9989L19.2746 11.8789L21.2002 11.9989Z" fill="#2C2C6F"/>
<path id="Vector_32" d="M21.0342 12.3991C21.0241 12.4758 21.0781 12.5461 21.1547 12.5562C21.2314 12.5663 21.3017 12.5123 21.3118 12.4357C21.3219 12.359 21.2679 12.2887 21.1913 12.2786C21.1146 12.2685 21.0443 12.3225 21.0342 12.3991Z" fill="#2C2C6F"/>
</g>
<g id="a_14">
<path id="Vector_33" d="M14.8008 11.9991L16.7264 11.8791L17.6798 11.9991L16.7264 12.1191L14.8008 11.9991Z" fill="#2C2C6F"/>
<path id="Vector_34" d="M14.9668 11.5989C14.9769 11.5223 14.9229 11.4519 14.8462 11.4418C14.7696 11.4317 14.6993 11.4857 14.6892 11.5624C14.6791 11.639 14.733 11.7094 14.8097 11.7194C14.8864 11.7295 14.9567 11.6756 14.9668 11.5989Z" fill="#2C2C6F"/>
</g>
</g>
<g id="b_8">
<g id="a_15">
<path id="Vector_35" d="M21.091 12.8268L19.1999 12.4444L18.3101 12.0817L19.262 12.2125L21.091 12.8268Z" fill="#2C2C6F"/>
<path id="Vector_36" d="M20.8274 13.1687C20.7978 13.2401 20.8317 13.322 20.9032 13.3516C20.9746 13.3812 21.0565 13.3473 21.0861 13.2758C21.1157 13.2044 21.0817 13.1225 21.0103 13.0929C20.9389 13.0633 20.857 13.0972 20.8274 13.1687Z" fill="#2C2C6F"/>
</g>
<g id="a_16">
<path id="Vector_37" d="M14.9095 11.1692L16.8006 11.5517L17.6904 11.9144L16.7384 11.7835L14.9095 11.1692Z" fill="#2C2C6F"/>
<path id="Vector_38" d="M15.1731 10.8274C15.2027 10.756 15.1688 10.6741 15.0973 10.6445C15.0259 10.6149 14.944 10.6488 14.9144 10.7203C14.8848 10.7917 14.9187 10.8736 14.9902 10.9032C15.0616 10.9328 15.1435 10.8989 15.1731 10.8274Z" fill="#2C2C6F"/>
</g>
</g>
</g>
</g>
<g id="d_3">
<g id="c_5">
<g id="b_9">
<g id="a_17">
<path id="Vector_39" d="M20.7715 13.6L19.0439 12.7411L18.2782 12.1605L19.1639 12.5333L20.7715 13.6Z" fill="#2C2C6F"/>
<path id="Vector_40" d="M20.428 13.8625C20.3809 13.9238 20.3925 14.0117 20.4538 14.0588C20.5152 14.1059 20.6031 14.0943 20.6501 14.0329C20.6972 13.9716 20.6856 13.8837 20.6243 13.8366C20.5629 13.7896 20.4751 13.8011 20.428 13.8625Z" fill="#2C2C6F"/>
</g>
<g id="a_18">
<path id="Vector_41" d="M15.2289 10.398L16.9566 11.2569L17.7223 11.8376L16.8366 11.4648L15.2289 10.398Z" fill="#2C2C6F"/>
<path id="Vector_42" d="M15.5725 10.1356C15.6196 10.0742 15.608 9.98633 15.5467 9.93926C15.4853 9.89219 15.3974 9.90376 15.3504 9.9651C15.3033 10.0264 15.3149 10.1143 15.3762 10.1614C15.4375 10.2085 15.5254 10.1969 15.5725 10.1356Z" fill="#2C2C6F"/>
</g>
</g>
<g id="b_10">
<g id="a_19">
<path id="Vector_43" d="M20.2628 14.2626L18.8163 12.9858L18.227 12.2268L18.986 12.8161L20.2628 14.2626Z" fill="#2C2C6F"/>
<path id="Vector_44" d="M19.863 14.4275C19.8017 14.4746 19.7901 14.5625 19.8372 14.6238C19.8842 14.6852 19.9721 14.6967 20.0335 14.6497C20.0948 14.6026 20.1064 14.5147 20.0593 14.4534C20.0122 14.392 19.9244 14.3805 19.863 14.4275Z" fill="#2C2C6F"/>
</g>
<g id="a_20">
<path id="Vector_45" d="M15.7377 9.73741L17.1842 11.0142L17.7735 11.7732L17.0145 11.1839L15.7377 9.73741Z" fill="#2C2C6F"/>
<path id="Vector_46" d="M16.1375 9.57246C16.1988 9.52539 16.2104 9.43751 16.1633 9.37616C16.1163 9.31482 16.0284 9.30325 15.967 9.35032C15.9057 9.39739 15.8941 9.48527 15.9412 9.54662C15.9883 9.60796 16.0761 9.61953 16.1375 9.57246Z" fill="#2C2C6F"/>
</g>
</g>
</g>
<g id="c_6">
<g id="b_11">
<g id="a_21">
<path id="Vector_47" d="M19.5997 14.769L18.5329 13.1613L18.1602 12.2756L18.7408 13.0413L19.5997 14.769Z" fill="#2C2C6F"/>
<path id="Vector_48" d="M19.1707 14.8261C19.0993 14.8557 19.0654 14.9376 19.095 15.0091C19.1246 15.0805 19.2064 15.1144 19.2779 15.0848C19.3493 15.0552 19.3832 14.9733 19.3537 14.9019C19.3241 14.8305 19.2422 14.7966 19.1707 14.8261Z" fill="#2C2C6F"/>
</g>
<g id="a_22">
<path id="Vector_49" d="M16.4003 9.22711L17.4671 10.8348L17.8398 11.7204L17.2592 10.9548L16.4003 9.22711Z" fill="#2C2C6F"/>
<path id="Vector_50" d="M16.8293 9.17191C16.9007 9.14232 16.9346 9.06042 16.905 8.98899C16.8754 8.91755 16.7936 8.88363 16.7221 8.91322C16.6507 8.94281 16.6168 9.02471 16.6463 9.09614C16.6759 9.16757 16.7578 9.2015 16.8293 9.17191Z" fill="#2C2C6F"/>
</g>
</g>
<g id="b_12">
<g id="a_23">
<path id="Vector_51" d="M18.8279 15.0897L18.2136 13.2607L18.0828 12.3087L18.4455 13.1986L18.8279 15.0897Z" fill="#2C2C6F"/>
<path id="Vector_52" d="M18.3994 15.0317C18.3227 15.0418 18.2687 15.1121 18.2788 15.1888C18.2889 15.2654 18.3592 15.3194 18.4359 15.3093C18.5126 15.2992 18.5665 15.2289 18.5564 15.1522C18.5463 15.0756 18.476 15.0216 18.3994 15.0317Z" fill="#2C2C6F"/>
</g>
<g id="a_24">
<path id="Vector_53" d="M17.1721 8.90839L17.7864 10.7374L17.9172 11.6894L17.5545 10.7995L17.1721 8.90839Z" fill="#2C2C6F"/>
<path id="Vector_54" d="M17.6006 8.96636C17.6773 8.95627 17.7313 8.88594 17.7212 8.80929C17.7111 8.73263 17.6408 8.67867 17.5641 8.68876C17.4874 8.69885 17.4335 8.76918 17.4436 8.84583C17.4537 8.92249 17.524 8.97645 17.6006 8.96636Z" fill="#2C2C6F"/>
</g>
</g>
</g>
</g>
</g>
</svg>
